<svg width="32" height="32" viewBox="0 0 32 32" fill="none" xmlns="http://www.w3.org/2000/svg">
  <rect width="32" height="32" rx="6" fill="#2563EB"/>
  <!-- Brain Circuit and Terminal Icon - scaled from 48x24 to fit 32x32, centered vertically -->
  <g transform="scale(0.667) translate(0, 8)" stroke="white" stroke-width="2" stroke-linecap="round" stroke-linejoin="round" fill="none">
    <!-- Brain Circuit (ENHANCED) -->
    <path d="M12 5a3 3 0 1 0-5.997.125 4 4 0 0 0-2.526 5.77 4 4 0 0 0 .556 6.588A4 4 0 1 0 12 18Z"/>
    <path d="M9 13a4.5 4.5 0 0 0 3-4"/>
    <path d="M6.003 5.125A3 3 0 0 0 6.401 6.5"/>
    <path d="M3.477 10.896a4 4 0 0 1 .585-.396"/>
    <path d="M6 18a4 4 0 0 1-1.967-.516"/>
    <path d="M12 13h4"/>
    <path d="M12 18h6a2 2 0 0 1 2 2v1"/>
    <path d="M12 8h8"/>
    <path d="M16 8V5a2 2 0 0 1 2-2"/>
    <circle cx="16" cy="13" r=".5" fill="white"/>
    <circle cx="18" cy="3" r=".5" fill="white"/>
    <circle cx="20" cy="21" r=".5" fill="white"/>
    <circle cx="20" cy="8" r=".5" fill="white"/>
    
    <!-- Terminal -->
    <path d="M28 6l6 6-6 6"/>
    <path d="M36 18h8"/>
  </g>
</svg>

